<svg width="26" height="30" viewBox="0 0 26 30" fill="none" xmlns="http://www.w3.org/2000/svg">
<path d="M2.15758 9.71729C1.64068 9.71729 1.20211 9.89754 0.841602 10.2581C0.481091 10.6186 0.300781 11.0512 0.300781 11.5561V19.3084C0.300781 19.826 0.481037 20.2642 0.841602 20.6247C1.20211 20.9852 1.64068 21.1656 2.15758 21.1656C2.6741 21.1656 3.11001 20.9853 3.46494 20.6247C3.81916 20.2642 3.99675 19.826 3.99675 19.3084V11.5561C3.99675 11.0511 3.8165 10.6186 3.45593 10.2581C3.09537 9.89754 2.66249 9.71729 2.15758 9.71729Z" fill="#fff"/>
<path d="M17.0879 2.75818L18.368 0.396789C18.452 0.240455 18.4221 0.120574 18.2781 0.0362778C18.1217 -0.0364103 18.0015 0.000421913 17.9175 0.144171L16.6196 2.52443C15.4774 2.01947 14.2695 1.76653 12.9956 1.76653C11.7215 1.76653 10.5134 2.01952 9.37175 2.52443L8.07373 0.144171C7.98938 0.000421913 7.86922 -0.0360849 7.71322 0.0362778C7.56882 0.120954 7.53893 0.240455 7.62328 0.396789L8.9034 2.75818C7.60538 3.42013 6.57158 4.34202 5.80239 5.52586C5.0332 6.71035 4.64844 8.00474 4.64844 9.4113H21.3247C21.3247 8.00506 20.9399 6.71062 20.1708 5.52586C19.4015 4.34202 18.3737 3.42013 17.0879 2.75818ZM9.68713 6.19285C9.5487 6.33161 9.38336 6.40066 9.19117 6.40066C8.9986 6.40066 8.83663 6.33161 8.70449 6.19285C8.57235 6.05474 8.50628 5.89006 8.50628 5.69722C8.50628 5.50503 8.57235 5.34001 8.70449 5.20158C8.83663 5.06347 8.99898 4.99442 9.19117 4.99442C9.38336 4.99442 9.5487 5.06347 9.68713 5.20158C9.82524 5.34034 9.89462 5.50503 9.89462 5.69722C9.89424 5.88973 9.82491 6.05474 9.68713 6.19285ZM17.2861 6.19285C17.1537 6.33161 16.9913 6.40066 16.7994 6.40066C16.6068 6.40066 16.4415 6.33161 16.3034 6.19285C16.165 6.05474 16.0959 5.89006 16.0959 5.69722C16.0959 5.50503 16.165 5.34001 16.3034 5.20158C16.4415 5.06347 16.6068 4.99442 16.7994 4.99442C16.9916 4.99442 17.1536 5.06347 17.2861 5.20158C17.4183 5.34034 17.4843 5.50503 17.4843 5.69722C17.4843 5.88973 17.4183 6.05474 17.2861 6.19285Z" fill="#fff"/>
<path d="M4.71875 22.0669C4.71875 22.6203 4.91094 23.0887 5.29537 23.4732C5.68013 23.8576 6.14859 24.0498 6.70162 24.0498H8.03582L8.0541 28.1428C8.0541 28.6596 8.23436 29.0985 8.59487 29.4591C8.95538 29.8197 9.38831 29.9999 9.8929 29.9999C10.4095 29.9999 10.8483 29.8197 11.2089 29.4591C11.5694 29.0985 11.7497 28.6597 11.7497 28.1428V24.0502H14.2376V28.1428C14.2376 28.6596 14.4178 29.0985 14.7783 29.4591C15.1389 29.8197 15.5774 29.9999 16.0943 29.9999C16.6109 29.9999 17.0497 29.8197 17.4103 29.4591C17.7709 29.0985 17.9511 28.6597 17.9511 28.1428V24.0502H19.3033C19.8441 24.0502 20.3065 23.8579 20.6916 23.4735C21.076 23.0891 21.2683 22.6206 21.2683 22.0673V10.0596H4.71875V22.0669Z" fill="#fff"/>
<path d="M23.831 9.71729C23.3261 9.71729 22.8935 9.89488 22.533 10.2491C22.1724 10.604 21.9922 11.0399 21.9922 11.5561V19.3084C21.9922 19.826 22.1724 20.2642 22.533 20.6247C22.8935 20.9853 23.3264 21.1656 23.831 21.1656C24.3476 21.1656 24.7864 20.9853 25.147 20.6247C25.5076 20.2642 25.6878 19.826 25.6878 19.3084V11.5561C25.6878 11.0398 25.5076 10.604 25.147 10.2491C24.7864 9.89488 24.3476 9.71729 23.831 9.71729Z" fill="#fff"/>
</svg>
